<?xml version="1.0" encoding="iso-8859-1"?>
<!-- Generator: Adobe Illustrator 19.0.0, SVG Export Plug-In . SVG Version: 6.00 Build 0)  -->
<svg version="1.1" id="Layer_1" xmlns="http://www.w3.org/2000/svg" xmlns:xlink="http://www.w3.org/1999/xlink" x="0px" y="0px"
	 viewBox="0 0 503.322 503.322" style="enable-background:new 0 0 503.322 503.322;" xml:space="preserve">
<path style="fill:#FBC176;" d="M0,73.763v130.169c0,6.942,6.075,13.017,13.017,13.017h225.627c6.942,0,13.017-6.075,13.017-13.017
	V73.763c0-6.942-6.075-13.017-13.017-13.017H13.017C6.075,60.746,0,66.82,0,73.763"/>
<path style="fill:#C39A6E;" d="M225.627,60.746V39.051c0-6.942-6.075-13.017-13.017-13.017h-69.424L121.492,0H30.373
	c-6.942,0-13.017,6.075-13.017,13.017v47.729H225.627z"/>
<g>
	<path style="fill:#FFFFFF;" d="M86.78,104.136H34.712c-5.207,0-8.678-3.471-8.678-8.678c0-5.207,3.471-8.678,8.678-8.678H86.78
		c5.207,0,8.678,3.471,8.678,8.678C95.458,100.664,91.986,104.136,86.78,104.136"/>
	<path style="fill:#FFFFFF;" d="M86.78,138.847H34.712c-5.207,0-8.678-3.471-8.678-8.678s3.471-8.678,8.678-8.678H86.78
		c5.207,0,8.678,3.471,8.678,8.678S91.986,138.847,86.78,138.847"/>
</g>
<path style="fill:#FBC176;" d="M251.661,360.136v130.169c0,6.942,6.075,13.017,13.017,13.017h225.627
	c6.942,0,13.017-6.075,13.017-13.017V360.136c0-6.942-6.075-13.017-13.017-13.017H264.678
	C257.736,347.119,251.661,353.193,251.661,360.136"/>
<g>
	<path style="fill:#FFFFFF;" d="M338.441,390.508h-52.068c-5.207,0-8.678-3.471-8.678-8.678s3.471-8.678,8.678-8.678h52.068
		c5.207,0,8.678,3.471,8.678,8.678S343.647,390.508,338.441,390.508"/>
	<path style="fill:#FFFFFF;" d="M338.441,425.22h-52.068c-5.207,0-8.678-3.471-8.678-8.678c0-5.207,3.471-8.678,8.678-8.678h52.068
		c5.207,0,8.678,3.471,8.678,8.678C347.119,421.749,343.647,425.22,338.441,425.22"/>
</g>
<path style="fill:#C39A6E;" d="M477.288,347.119v-21.695c0-6.942-6.075-13.017-13.017-13.017h-69.424l-21.695-26.034h-91.119
	c-6.942,0-13.017,6.075-13.017,13.017v47.729H477.288z"/>
<g>
	<path style="fill:#F38774;" d="M190.915,442.576H17.356c-5.207,0-8.678-3.471-8.678-8.678c0-5.207,3.471-8.678,8.678-8.678h173.559
		c5.207,0,8.678,3.471,8.678,8.678C199.593,439.105,196.122,442.576,190.915,442.576"/>
	<path style="fill:#F38774;" d="M190.915,442.576c-2.603,0-4.339-0.868-6.075-2.603l-34.712-34.712
		c-3.471-3.471-3.471-8.678,0-12.149c3.471-3.471,8.678-3.471,12.149,0l34.712,34.712c3.471,3.471,3.471,8.678,0,12.149
		C195.254,441.708,193.519,442.576,190.915,442.576"/>
	<path style="fill:#F38774;" d="M156.203,477.288c-2.603,0-4.339-0.868-6.075-2.603c-3.471-3.471-3.471-8.678,0-12.149
		l34.712-34.712c3.471-3.471,8.678-3.471,12.149,0c3.471,3.471,3.471,8.678,0,12.149l-34.712,34.712
		C160.542,476.42,158.807,477.288,156.203,477.288"/>
</g>
<g>
	<path style="fill:#26B999;" d="M485.966,95.458H312.407c-5.207,0-8.678-3.471-8.678-8.678c0-5.207,3.471-8.678,8.678-8.678h173.559
		c5.207,0,8.678,3.471,8.678,8.678C494.644,91.986,491.173,95.458,485.966,95.458"/>
	<path style="fill:#26B999;" d="M347.119,130.169c-2.603,0-4.339-0.868-6.075-2.603l-34.712-34.712
		c-3.471-3.471-3.471-8.678,0-12.149c3.471-3.471,8.678-3.471,12.149,0l34.712,34.712c3.471,3.471,3.471,8.678,0,12.149
		C351.458,129.302,349.722,130.169,347.119,130.169"/>
	<path style="fill:#26B999;" d="M312.407,95.458c-2.603,0-4.339-0.868-6.075-2.603c-3.471-3.471-3.471-8.678,0-12.149l34.712-34.712
		c3.471-3.471,8.678-3.471,12.149,0c3.471,3.471,3.471,8.678,0,12.149l-34.712,34.712C316.746,94.59,315.01,95.458,312.407,95.458"
		/>
</g>
<g>
</g>
<g>
</g>
<g>
</g>
<g>
</g>
<g>
</g>
<g>
</g>
<g>
</g>
<g>
</g>
<g>
</g>
<g>
</g>
<g>
</g>
<g>
</g>
<g>
</g>
<g>
</g>
<g>
</g>
</svg>
